<mxfile host="app.diagrams.net" modified="2020-12-21T08:41:34.775Z" agent="5.0 (Windows NT 10.0; Win64; x64) AppleWebKit/537.36 (KHTML, like Gecko) Chrome/86.0.4240.198 Safari/537.36" etag="VfulGg7eCUBnzIHx-z9s" version="14.1.1" type="github">
  <diagram id="t4xkqEcTOITqZWV_rccT" name="第 1 页">
    <mxGraphModel dx="877" dy="462" grid="1" gridSize="10" guides="1" tooltips="1" connect="1" arrows="1" fold="1" page="1" pageScale="1" pageWidth="850" pageHeight="1100" background="#DAD2D8" math="0" shadow="0">
      <root>
        <mxCell id="0" />
        <mxCell id="1" parent="0" />
        <mxCell id="bRRYWImQzeHe5KaCK1TS-1" value="前端" style="shape=umlLifeline;perimeter=lifelinePerimeter;whiteSpace=wrap;html=1;container=1;collapsible=0;recursiveResize=0;outlineConnect=0;rounded=0;strokeColor=#0F8B8D;fillColor=#FAE5C7;fontColor=#143642;fontFamily=Comic Sans MS;" vertex="1" parent="1">
          <mxGeometry x="80" y="80" width="100" height="550" as="geometry" />
        </mxCell>
        <mxCell id="bRRYWImQzeHe5KaCK1TS-2" value="CheckRuleInfo" style="shape=umlLifeline;perimeter=lifelinePerimeter;whiteSpace=wrap;html=1;container=1;collapsible=0;recursiveResize=0;outlineConnect=0;rounded=0;strokeColor=#0F8B8D;fillColor=#FAE5C7;fontColor=#143642;fontFamily=Comic Sans MS;" vertex="1" parent="1">
          <mxGeometry x="240" y="80" width="100" height="550" as="geometry" />
        </mxCell>
      </root>
    </mxGraphModel>
  </diagram>
</mxfile>
